# AST/ASF file generated using VICON BodyLanguage
# -----------------------------------------------
:version 1.10
:name VICON
:units
  mass 1.0
  length 0.45
  angle deg
:documentation
   .ast/.asf automatically generated from VICON data using
   VICON BodyBuilder and BodyLanguage model FoxedUp or BRILLIANT.MOD
:root
   order TX TY TZ RX RY RZ
   axis XYZ
   position 0 0 0  
   orientation 0 0 0 
:bonedata
  begin
     id 1 
     name lhipjoint
     direction 0.523584 -0.783993 0.333487 
     length 2.44404 
     axis 0 0 0  XYZ
  end
  begin
     id 2 
     name lfemur
     direction 0.34202 -0.939693 0  
     length 7.29523  
     axis 0 0 20  XYZ
    dof rx ry rz
    limits (-160.0 20.0)
           (-70.0 70.0)
           (-60.0 70.0)
  end
  begin
     id 3 
     name ltibia
     direction 0.34215 -0.939645 0   
     length 7.81194   
     axis 0 0 20   XYZ
    dof rx
    limits (-10.0 170.0)
  end
  begin
     id 4 
     name lfoot
     direction 0.0941847 -0.25877 0.961336   
     length 2.41437   
     axis -90 7.62852e-016 20   XYZ
    dof rx rz
    limits (-45.0 90.0)
           (-70.0 20.0)
  end
  begin
     id 5 
     name ltoes
     direction 1.53526e-011 -4.21768e-011 1   
     length 1.2048   
     axis -90 7.62852e-016 20   XYZ
    dof rx
    limits (-90.0 20.0)
  end
  begin
     id 6 
     name rhipjoint
     direction -0.46599 -0.814191 0.346332   
     length 2.35339  
     axis 0 0 0  XYZ 
  end
  begin
     id 7 
     name rfemur
     direction -0.34202 -0.939693 0   
     length 7.34966   
     axis 0 0 -20   XYZ
    dof rx ry rz
    limits (-160.0 20.0)
           (-70.0 70.0)
           (-70.0 60.0)
  end
  begin
     id 8 
     name rtibia
     direction -0.34202 -0.939693 0   
     length 7.89934   
     axis 0 0 -20   XYZ
    dof rx
    limits (-10.0 170.0)
 end
 begin
     id 9 
     name rfoot
     direction -0.0975468 -0.268008 0.958466   
     length 2.27725  
     axis -90 -7.62852e-016 -20   XYZ
    dof rx rz
    limits (-45.0 90.0)
           (-20.0 70.0)
  end
  begin
     id 10 
     name rtoes
     direction -1.53563e-011 -4.22022e-011 1   
     length 1.13683   
     axis -90 -7.62852e-016 -20   XYZ
    dof rx
    limits (-90.0 20.0)
  end
  begin
     id 11 
     name lowerback
     direction -0.00456414 0.999242 -0.0386661   
     length 2.16968   
     axis 0 0 0   XYZ
    dof rx ry rz
    limits (-20.0 45.0)
           (-30.0 30.0)
           (-30.0 30.0)
  end
  begin
     id 12 
     name upperback
     direction 0.0297078 0.998988 0.0337799   
     length 2.15674   
     axis 0 0 0   XYZ
    dof rx ry rz
    limits (-20.0 45.0)
           (-30.0 30.0)
           (-30.0 30.0)
  end
  begin
     id 13 
     name thorax
     direction 0.0309305 0.998202 0.0513506   
     length 2.16319   
     axis 0 0 0   XYZ
    dof rx ry rz
    limits (-20.0 45.0)
           (-30.0 30.0)
           (-30.0 30.0)
  end
  begin
     id 14 
     name lowerneck
     direction -0.103039 0.983474 0.148872   
     length 1.64318   
     axis 0 0 0   XYZ
    dof rx ry rz
    limits (-20.0 45.0)
           (-30.0 30.0)
           (-30.0 30.0)
  end
  begin
     id 15 
     name upperneck
     direction 0.128124 0.971079 -0.201469   
     length 1.68242   
     axis 0 0 0   XYZ
    dof rx ry rz
    limits (-20.0 45.0)
           (-30.0 30.0)
           (-30.0 30.0)
  end
  begin
     id 16
     name head
     direction 0.0496365 0.994919 -0.0875941  
     length 1.70108  
     axis 0 0 0   XYZ
    dof rx ry rz
    limits (-20.0 45.0)
           (-30.0 30.0)
           (-30.0 30.0)
  end
  begin
     id 17 
     name lclavicle
     direction 0.887148 0.430222 -0.166967  
     length 3.25763  
     axis 0 0 0   XYZ
    dof ry rz
    limits (-20.0 10.0)
           (0.0 20.0)
  end
  begin
     id 18 
     name lhumerus
     direction 1 -4.48962e-011 1.92156e-027   
     length 5.10755   
     axis 180 -30 -90   XYZ
    dof rx ry rz
    limits (-60.0 90.0)
           (-90.0 90.0)
           (-90.0 90.0)
  end
  begin
     id 19
     name lradius
     direction 1 -4.48958e-011 7.10963e-027   
     length 3.36253   
     axis 180 -30 -90   XYZ
    dof rx
    limits (-10.0 170.0)
  end
  begin
     id 20
     name lwrist
     direction 1 -4.48946e-011 1.82396e-026   
     length 1.68127   
     axis -1.15222e-014 90 90   XYZ
    dof ry
    limits (-180.0 0.0)
 end
  begin
     id 21 
     name lhand
     direction 1 -4.48919e-011 3.64759e-026   
     length 0.619088   
     axis -2.32787e-014 90 90   XYZ
    dof rx rz
    limits (-90.0 90.0)
           (-45.0 45.0)
  end
  begin
     id 22 
     name lfingers
     direction 1 -4.49012e-011 7.29744e-026   
     length 0.499125   
     axis -4.6558e-014 90 90   XYZ
    dof rx
    limits (0.0 90.0)
  end
  begin
     id 23
     name lthumb
     direction 0.707107 -6.35028e-011 0.707107   
     length 0.716646   
     axis -90 45 3.78391e-014   XYZ
    dof rx rz
    limits (-45.0 45.0)
           (-45.0 45.0)
  end
  begin
     id 24 
     name rclavicle
     direction -0.82886 0.533198 -0.169384   
     length 3.20647  
     axis 0 0 0   XYZ 
    dof ry rz
    limits (-10.0 20.0)
           (-20.0 0.0)
  end
  begin
     id 25 
     name rhumerus
     direction -1 -4.48973e-011 3.06863e-027  
     length 5.27387   
     axis 180 30 90   XYZ
    dof rx ry rz
    limits (-90.0 60.0)
           (-90.0 90.0)
           (-90.0 90.0)
  end
  begin
     id 26 
     name rradius
     direction -1 -4.48988e-011 9.4797e-027   
     length 3.40144   
     axis 180 30 90   XYZ
    dof rx
    limits (-10.0 170.0)
  end
  begin
     id 27 
     name rwrist
     direction -1 -4.48897e-011 1.82366e-026   
     length 1.70072   
     axis -1.15222e-014 -90 -90   XYZ
    dof ry
    limits (-180.0 0.0)
  end
  begin
     id 28
     name rhand
     direction -1 -4.48965e-011 3.64815e-026   
     length 0.742821   
     axis -2.32787e-014 -90 -90   XYZ
    dof rx rz
    limits (-90.0 90.0)
           (-45.0 45.0)
  end
  begin
     id 29
     name rfingers
     direction -1 -4.49016e-011 7.29754e-026   
     length 0.598881   
     axis -4.6558e-014 -90 -90   XYZ
    dof rx
    limits (0.0 90.0)
  end
  begin
     id 30
     name rthumb
     direction -0.707107 -6.3488e-011 0.707107   
     length 0.859877   
     axis -90 -45 -3.78391e-014   XYZ
    dof rx rz
    limits (-45.0 45.0)
           (-45.0 45.0)
  end
:hierarchy
  begin
    root lhipjoint rhipjoint lowerback
    lhipjoint lfemur
    lfemur ltibia
    ltibia lfoot
    lfoot ltoes
    rhipjoint rfemur
    rfemur rtibia
    rtibia rfoot
    rfoot rtoes
    lowerback upperback
    upperback thorax
    thorax lowerneck lclavicle rclavicle
    lowerneck upperneck
    upperneck head
    lclavicle lhumerus
    lhumerus lradius
    lradius lwrist
    lwrist lhand lthumb
    lhand lfingers
    rclavicle rhumerus
    rhumerus rradius
    rradius rwrist
    rwrist rhand rthumb
    rhand rfingers
  end

#!OML:ASF F:\Work\Patient Classification 1\justin\Session 1\justin.ASF
:FULLY-SPECIFIED
:DEGREES
2704
root 1.68767 18.2703 -4.83123 -3.09188 11.0347 -5.96907
lowerback 7.95631 2.82219 -2.07808
upperback -0.365408 3.66727 1.98436
thorax -5.10547 1.89692 2.77804
lowerneck -18.7536 -8.244 -16.3105
upperneck 17.3913 -11.2084 19.4282
head 10.8627 -4.30006 8.08447
rclavicle 1.87603e-014 7.55382e-015
rhumerus -44.671 -4.48707 -74.9913
rradius 33.4989
rwrist -1.76
rhand -27.3063 11.7636
rfingers 7.12502
rthumb -0.71589 -18.215
lclavicle 1.87603e-014 7.55382e-015
lhumerus -45.8168 19.0502 77.2591
lradius 20.5406
lwrist -4.33173
lhand -15.5241 28.8283
lfingers 7.12502
lthumb 10.6593 58.5379
rfemur 3.62455 -4.75387 22.121
rtibia 14.3306
rfoot -10.6338 -12.0623
rtoes -14.0011
lfemur -0.862281 -3.04826 -16.5318
ltibia 21.2626
lfoot -13.8014 -8.62257
ltoes -7.22421
2705
root 1.691 18.269 -4.82202 -3.10021 10.8811 -5.90465
lowerback 7.79209 2.6759 -2.05226
upperback -0.43611 3.48173 2.06598
thorax -5.07796 1.80664 2.8783
lowerneck -18.929 -8.17172 -16.2639
upperneck 17.7219 -11.0952 19.2324
head 10.972 -4.25103 8.03435
rclavicle 1.08897e-014 -8.34896e-015
rhumerus -44.6937 -5.55419 -74.0082
rradius 32.0309
rwrist -2.74128
rhand -25.6371 9.77231
rfingers 7.12502
rthumb 0.89622 -20.2055
lclavicle 1.08897e-014 -8.34896e-015
lhumerus -45.8566 20.1723 76.3596
lradius 19.1858
lwrist -7.47284
lhand -14.647 28.6169
lfingers 7.12502
lthumb 11.5052 58.2812
rfemur 3.71775 -4.72657 22.0311
rtibia 14.3155
rfoot -10.4797 -11.8821
rtoes -12.8162
lfemur -0.721833 -3.00229 -16.6153
ltibia 21.1506
lfoot -13.8204 -8.52696
ltoes -7.38835
2706
root 1.69101 18.2709 -4.81417 -3.09211 10.6894 -5.90676
lowerback 7.72056 2.51547 -1.95623
upperback -0.567222 3.28125 2.11185
thorax -5.1582 1.70808 2.89799
lowerneck -19.01 -8.06616 -16.0711
upperneck 18.024 -10.9814 19.0155
head 11.0428 -4.19887 7.94876
rclavicle 3.24267e-015 -2.70347e-014
rhumerus -44.5522 -6.90797 -72.8766
rradius 30.271
rwrist -2.58443
rhand -27.4941 12.4824
rfingers 7.12502
rthumb -0.897306 -17.4954
lclavicle 3.24267e-015 -2.70347e-014
lhumerus -46.1449 21.1374 75.261
lradius 18.1195
lwrist -10.4862
lhand -13.4759 28.2405
lfingers 7.12502
lthumb 12.6344 57.8384
rfemur 3.73146 -4.55856 22.0398
rtibia 14.2924
rfoot -10.6981 -11.8405
rtoes -13.3014
lfemur -0.616103 -2.98426 -16.6187
ltibia 21.0311
lfoot -13.7998 -8.40733
ltoes -7.42631
2707
root 1.68896 18.2718 -4.80196 -3.14378 10.469 -5.86536
lowerback 7.61392 2.40665 -1.97521
upperback -0.609253 3.13911 2.17187
thorax -5.13679 1.63975 2.99269
lowerneck -19.0211 -8.01829 -15.8863
upperneck 18.2402 -10.9465 18.8033
head 11.0872 -4.1875 7.84754
rclavicle 3.62658e-014 -2.38542e-015
rhumerus -44.3371 -8.61073 -71.464
rradius 28.3525
rwrist -1.59794
rhand -27.3341 11.7116
rfingers 7.12502
rthumb -0.742792 -18.2669
lclavicle 3.62658e-014 -2.38542e-015
lhumerus -46.3393 22.0088 74.3249
lradius 17.297
lwrist -13.3339
lhand -12.6927 27.5211
lfingers 7.12502
lthumb 13.3894 57.0708
rfemur 3.83259 -4.30538 22.0195
rtibia 14.2553
rfoot -10.943 -11.8743
rtoes -13.9175
lfemur -0.419348 -2.92475 -16.6644
ltibia 20.9237
lfoot -13.8029 -8.27629
ltoes -7.50046
2708
root 1.68811 18.2712 -4.79159 -3.16603 10.2158 -5.79546
lowerback 7.33889 2.33863 -2.07099
upperback -0.529668 3.04903 2.30857
thorax -4.90485 1.59682 3.21221
lowerneck -19.1158 -8.03798 -15.7878
upperneck 18.2895 -10.9269 18.5201
head 11.09 -4.19454 7.72001
rclavicle 5.62685e-014 5.96354e-015
rhumerus -44.1141 -10.4256 -69.8441
rradius 26.6353
rwrist -0.479165
rhand -27.5405 12.444
rfingers 7.12502
rthumb -0.942085 -17.5337
lclavicle 5.62685e-014 5.96354e-015
lhumerus -46.2842 23.3104 73.4675
lradius 16.414
lwrist -16.3402
lhand -12.309 27.6258
lfingers 7.12502
lthumb 13.7593 57.1508
rfemur 3.89958 -4.14324 21.9553
rtibia 14.2277
rfoot -10.9091 -11.8074
rtoes -14.4089
lfemur -0.238155 -2.82796 -16.7443
ltibia 20.8018
lfoot -13.8054 -8.11073
ltoes -7.48205
2709
root 1.68712 18.271 -4.7879 -3.12983 10.0696 -5.69566
lowerback 7.15591 2.22044 -2.156
upperback -0.599542 2.89177 2.40766
thorax -4.87267 1.52354 3.38786
lowerneck -18.9647 -8.01155 -15.7465
upperneck 18.3764 -10.8733 18.2732
head 11.0584 -4.19881 7.62842
rclavicle 2.78795e-014 1.35174e-014
rhumerus -44.1884 -12.4269 -68.0491
rradius 25.107
rwrist 1.19152
rhand -28.2037 13.3886
rfingers 7.12502
rthumb -1.58262 -16.5853
lclavicle 2.78795e-014 1.35174e-014
lhumerus -46.4709 24.6001 72.4518
lradius 15.5916
lwrist -19.3594
lhand -12.1419 27.8416
lfingers 7.12502
lthumb 13.9203 57.3557
rfemur 3.88089 -4.17152 21.8281
rtibia 14.2058
rfoot -10.8422 -11.6523
rtoes -15.0124
lfemur -0.129918 -2.78586 -16.8533
ltibia 20.6652
lfoot -13.7744 -8.00007
ltoes -7.33181
2710
root 1.6837 18.2716 -4.78501 -3.10113 10.0124 -5.64079
lowerback 7.12525 2.08243 -2.13387
upperback -0.819901 2.71307 2.4221
thorax -5.07163 1.4402 3.40957
lowerneck -18.5529 -7.88307 -15.8143
upperneck 18.5683 -10.7788 18.3645
head 11.0399 -4.17035 7.70908
rclavicle -1.94281e-014 1.68967e-014
rhumerus -44.5619 -14.7482 -66.0448
rradius 23.5008
rwrist 3.12352
rhand -28.1774 10.7476
rfingers 7.12502
rthumb -1.55723 -19.2265
lclavicle -1.94281e-014 1.68967e-014
lhumerus -46.7121 24.8473 71.958
lradius 15.2587
lwrist -21.1673
lhand -12.0105 27.5377
lfingers 7.12502
lthumb 14.0469 57.0431
rfemur 3.85012 -4.17665 21.7724
rtibia 14.223
rfoot -10.8224 -11.5825
rtoes -14.9336
lfemur -0.0354815 -2.82212 -16.903
ltibia 20.5105
lfoot -13.7247 -7.90497
ltoes -7.32526
2711
root 1.68248 18.2722 -4.77732 -3.09128 9.86851 -5.61445
lowerback 7.07347 1.99126 -2.05142
upperback -0.962565 2.60083 2.42253
thorax -5.17908 1.38556 3.3766
lowerneck -18.3402 -7.74843 -15.9086
upperneck 18.6921 -10.6785 18.6489
head 11.0508 -4.11287 7.86895
rclavicle 1.08276e-014 1.21259e-014
rhumerus -44.9396 -17.2914 -63.8874
rradius 21.9214
rwrist 5.0343
rhand -27.9448 8.58469
rfingers 7.12502
rthumb -1.33261 -21.3909
lclavicle 1.08276e-014 1.21259e-014
lhumerus -46.5766 23.8984 72.5713
lradius 15.4696
lwrist -21.0858
lhand -11.6246 27.6945
lfingers 7.12502
lthumb 14.4188 57.1737
rfemur 3.85689 -4.15886 21.7419
rtibia 14.2883
rfoot -10.8977 -11.4373
rtoes -14.7498
lfemur 0.103677 -2.79583 -16.9311
ltibia 20.3357
lfoot -13.7055 -7.78104
ltoes -7.50679
2712
root 1.6834 18.2714 -4.77083 -3.06076 9.56803 -5.46387
lowerback 7.02581 1.93295 -2.1163
upperback -1.00695 2.51922 2.44151
thorax -5.1962 1.34827 3.44374
lowerneck -18.5363 -7.71791 -15.9021
upperneck 18.8749 -10.6311 18.6271
head 11.1438 -4.0815 7.87648
rclavicle -8.40486e-015 4.37326e-015
rhumerus -45.2385 -19.8141 -61.6688
rradius 20.4971
rwrist 6.87779
rhand -27.8319 8.90157
rfingers 7.12502
rthumb -1.22356 -21.0747
lclavicle -8.40486e-015 4.37326e-015
lhumerus -46.386 23.2683 73.0877
lradius 15.6374
lwrist -20.9469
lhand -11.2394 27.8912
lfingers 7.12502
lthumb 14.7899 57.3435
rfemur 3.83652 -4.15199 21.5524
rtibia 14.3638
rfoot -10.9151 -11.154
rtoes -15.1339
lfemur 0.255765 -2.64134 -17.1077
ltibia 20.1691
lfoot -13.7033 -7.6135
ltoes -7.80843
2713
root 1.68143 18.2722 -4.76843 -2.99907 9.17822 -5.32763
lowerback 6.96453 1.8737 -2.23141
upperback -1.01024 2.43526 2.52763
thorax -5.16752 1.31138 3.61078
lowerneck -18.9691 -7.73973 -15.8308
upperneck 19.1861 -10.5827 18.2938
head 11.3022 -4.06352 7.75065
rclavicle 3.14949e-014 3.77691e-015
rhumerus -45.5465 -22.3774 -59.3034
rradius 19.2125
rwrist 8.92171
rhand -27.7507 8.94281
rfingers 7.12502
rthumb -1.14516 -21.0339
lclavicle 3.14949e-014 3.77691e-015
lhumerus -46.1692 23.2843 73.284
lradius 15.7144
lwrist -21.2089
lhand -10.7165 28.5356
lfingers 7.12502
lthumb 15.2936 57.9502
rfemur 3.74206 -4.04732 21.3985
rtibia 14.3987
rfoot -10.8346 -10.8734
rtoes -15.7582
lfemur 0.350764 -2.46497 -17.2544
ltibia 20.023
lfoot -13.6648 -7.42286
ltoes -7.90342
